<?xml version="1.0" encoding="utf-8"?>
<!-- Generator: Adobe Illustrator 15.0.0, SVG Export Plug-In . SVG Version: 6.00 Build 0)  -->
<!DOCTYPE svg PUBLIC "-//W3C//DTD SVG 1.1//EN" "http://www.w3.org/Graphics/SVG/1.1/DTD/svg11.dtd">
<svg version="1.1" id="Ebene_1" xmlns="http://www.w3.org/2000/svg" xmlns:xlink="http://www.w3.org/1999/xlink" x="0px" y="0px"
	 width="901.204px" height="374.268px" viewBox="0 0 901.204 374.268" enable-background="new 0 0 901.204 374.268"
	 xml:space="preserve">
<g>
	<defs>
		<rect id="SVGID_1_" width="901.204" height="374.268"/>
	</defs>
	<clipPath id="SVGID_2_">
		<use xlink:href="#SVGID_1_"  overflow="visible"/>
	</clipPath>
	<path clip-path="url(#SVGID_2_)" fill="#1CA601" d="M715.126,374.254l182.601-151.098c2.272-11.658,3.477-23.699,3.477-36.022
		C901.203,83.784,817.421,0,714.07,0C610.719,0,526.937,83.784,526.937,187.135s83.782,187.133,187.134,187.133
		C714.423,374.268,714.773,374.256,715.126,374.254"/>
	<path clip-path="url(#SVGID_2_)" fill="#2B1887" d="M0,136.063c0-2.176,0.78-4.045,2.343-5.608
		c1.561-1.561,3.432-2.343,5.608-2.343h68.045c7.644,0,14.605,1.05,20.882,3.151c6.277,2.1,11.62,5.789,16.028,11.067
		c4.407,5.278,6.612,11.814,6.612,19.605c0,8.593-3.766,15.956-11.299,22.091c10.768,5.722,16.124,15.032,16.07,27.932
		c0,11.497-4.283,20.402-12.848,26.711c-8.565,6.31-19.069,9.464-31.512,9.464H7.951c-2.176,0-4.047-0.767-5.608-2.302
		C0.78,244.296,0,242.441,0,240.266V136.063z M31.553,174.145h44.778c3.515,0,6.332-1.024,8.453-3.072
		c2.12-2.048,3.181-4.916,3.181-8.603c0-3.688-1.061-6.569-3.181-8.646c-2.121-2.076-4.938-3.114-8.453-3.114H31.553V174.145z
		 M31.553,225.535h47.874c4.353,0,7.659-1.283,9.918-3.851c2.26-2.565,3.39-6.081,3.39-10.545s-1.144-7.979-3.431-10.547
		c-2.289-2.565-5.581-3.85-9.877-3.85H31.553V225.535z"/>
	<path clip-path="url(#SVGID_2_)" fill="#2B1887" d="M149.532,242.106c-7.394-5.133-11.09-12.387-11.09-21.761
		s3.696-16.572,11.09-21.594c7.392-5.021,16.92-7.533,28.582-7.533h27.704c0-6.527-1.371-11.075-4.111-13.642
		c-2.74-2.566-7.074-3.85-13.001-3.85c-7.774,0-13.226,1.897-16.356,5.691c-2.396,2.958-5.597,4.436-9.607,4.436h-12.446
		c-1.504,0-2.743-0.487-3.717-1.464c-0.975-0.976-1.462-2.19-1.462-3.642c0-16.012,15.2-24.02,45.602-24.02
		c13.289,0,23.954,2.971,31.995,8.914c8.041,5.942,12.062,15.136,12.062,27.577v51.81c0,1.506-0.475,2.733-1.423,3.682
		c-0.95,0.949-2.176,1.423-3.683,1.423h-16.153c-1.507,0-2.735-0.488-3.683-1.465c-0.949-0.976-1.423-2.189-1.423-3.64v-2.596
		c-8.817,6.307-18.915,9.43-30.298,9.374C166.452,249.806,156.924,247.241,149.532,242.106 M167.401,220.345
		c0,3.069,1.174,5.58,3.523,7.532c2.349,1.954,5.676,2.93,9.981,2.93c8.611,0,16.916-2.511,24.913-7.532v-13.057h-25.751
		c-3.916,0-7.005,0.949-9.27,2.846C168.532,214.961,167.401,217.388,167.401,220.345"/>
	<path clip-path="url(#SVGID_2_)" fill="#2B1887" d="M259.309,243.027V133.301c0-1.506,0.488-2.748,1.465-3.725
		c0.975-0.975,2.189-1.464,3.64-1.464h18.748c1.507,0,2.734,0.489,3.683,1.464c0.948,0.977,1.423,2.219,1.423,3.725v33.562
		c9.597-8.089,19.361-12.136,29.294-12.136c11.772,0,21.063,3.306,27.871,9.918c6.807,6.613,10.211,16.727,10.211,30.34v48.042
		c0,1.507-0.489,2.734-1.465,3.684c-0.977,0.948-2.218,1.422-3.724,1.422H331.79c-1.506,0-2.735-0.488-3.682-1.464
		c-0.95-0.977-1.423-2.19-1.423-3.642v-48.042c0-13.392-5.329-20.059-15.986-20.003c-6.976,0-14.452,3.989-22.431,11.969v56.076
		c0,1.507-0.489,2.734-1.464,3.684c-0.978,0.948-2.191,1.422-3.642,1.422h-18.748c-1.506,0-2.734-0.474-3.682-1.422
		C259.783,245.761,259.309,244.534,259.309,243.027"/>
	<path clip-path="url(#SVGID_2_)" fill="#2B1887" d="M380.091,209.548V161.59c0-1.507,0.488-2.748,1.465-3.725
		c0.975-0.975,2.189-1.465,3.64-1.465h18.749c1.506,0,2.733,0.488,3.682,1.464c0.948,0.975,1.423,2.215,1.423,3.719v47.904
		c0,13.376,5.301,20.063,15.902,20.063c6.975,0,14.48-4.012,22.515-12.037v-55.931c0-1.504,0.488-2.744,1.465-3.719
		c0.974-0.976,2.189-1.464,3.64-1.464h18.665c1.505,0,2.747,0.49,3.724,1.465c0.978,0.977,1.466,2.218,1.466,3.725v81.437
		c0,1.507-0.488,2.734-1.466,3.683c-0.977,0.949-2.219,1.423-3.724,1.423h-18.665c-1.505,0-2.734-0.49-3.683-1.472
		c-0.949-0.98-1.422-2.199-1.422-3.657v-5.38c-9.598,8.122-19.363,12.183-29.294,12.183c-11.773,0-21.064-3.306-27.871-9.918
		C383.494,233.276,380.091,223.164,380.091,209.548"/>
	<path clip-path="url(#SVGID_2_)" fill="#2B1887" d="M500.875,243.027v-81.436c0-1.507,0.486-2.748,1.465-3.725
		c0.975-0.976,2.188-1.465,3.64-1.465h18.748c1.506,0,2.734,0.489,3.683,1.465c0.948,0.977,1.424,2.218,1.424,3.725v5.272
		c4.018-3.904,7.964-6.905,11.843-8.997c3.878-2.092,8.55-3.139,14.019-3.139c13,0,22.85,5.357,29.545,16.07
		c10.378-10.768,20.979-16.124,31.805-16.07c10.991,0,19.653,3.279,25.987,9.834c6.332,6.558,9.499,16.698,9.499,30.424v48.042
		c0,1.507-0.474,2.734-1.423,3.684c-0.949,0.948-2.175,1.422-3.682,1.422h-18.664c-1.507,0-2.749-0.488-3.726-1.464
		c-0.977-0.977-1.465-2.19-1.465-3.642v-48.042c0-13.392-4.853-20.059-14.562-20.003c-5.915,0-12.026,4.269-18.33,12.806
		c0.335,2.399,0.503,4.8,0.503,7.197v48.042c0,1.507-0.49,2.734-1.465,3.684c-0.979,0.948-2.191,1.422-3.642,1.422h-18.665
		c-1.506,0-2.749-0.488-3.724-1.464c-0.977-0.977-1.464-2.19-1.464-3.642v-48.042c0-13.392-4.855-20.059-14.564-20.003
		c-6.192,0-12.136,3.989-17.826,11.969v56.076c0,1.507-0.489,2.734-1.466,3.684c-0.976,0.948-2.189,1.422-3.641,1.422h-18.748
		c-1.506,0-2.734-0.474-3.682-1.422C501.349,245.761,500.875,244.534,500.875,243.027"/>
	<path clip-path="url(#SVGID_2_)" fill="#2B1887" d="M682.965,242.106c-7.396-5.133-11.091-12.387-11.091-21.761
		s3.695-16.572,11.091-21.594c7.392-5.021,16.92-7.533,28.582-7.533h27.703c0-6.527-1.37-11.075-4.109-13.642
		c-2.742-2.566-7.076-3.85-13.002-3.85c-7.774,0-13.227,1.897-16.357,5.691c-2.395,2.958-5.596,4.436-9.605,4.436h-12.446
		c-1.504,0-2.743-0.487-3.716-1.464c-0.978-0.976-1.463-2.19-1.463-3.642c0-16.012,15.199-24.02,45.601-24.02
		c13.29,0,23.954,2.971,31.996,8.914c8.04,5.942,12.062,15.136,12.062,27.577v51.81c0,1.506-0.475,2.733-1.423,3.682
		c-0.949,0.949-2.177,1.423-3.682,1.423H746.95c-1.507,0-2.734-0.488-3.682-1.465c-0.951-0.976-1.423-2.189-1.423-3.64v-2.596
		c-8.818,6.307-18.916,9.43-30.299,9.374C699.885,249.806,690.356,247.241,682.965,242.106 M700.834,220.345
		c0,3.069,1.175,5.58,3.522,7.532c2.349,1.954,5.676,2.93,9.981,2.93c8.61,0,16.916-2.511,24.912-7.532v-13.057h-25.751
		c-3.915,0-7.005,0.949-9.27,2.846C701.965,214.961,700.834,217.388,700.834,220.345"/>
	<path clip-path="url(#SVGID_2_)" fill="#2B1887" d="M34.716,337.379v-39.292c0-0.819,0.294-1.522,0.882-2.111
		c0.588-0.588,1.292-0.883,2.111-0.883h5.861c0.861,0,1.581,0.295,2.158,0.883c0.578,0.589,0.867,1.292,0.867,2.111v39.229
		c0,0.818-0.299,1.517-0.898,2.095s-1.308,0.866-2.127,0.866h-5.861c-0.819,0-1.523-0.278-2.111-0.835
		C35.01,338.886,34.716,338.198,34.716,337.379"/>
	<path clip-path="url(#SVGID_2_)" fill="#2B1887" d="M56.718,326.729v-29.682c0-0.567,0.184-1.034,0.552-1.402
		c0.367-0.367,0.824-0.552,1.37-0.552h7.058c0.567,0,1.029,0.184,1.387,0.55c0.357,0.367,0.535,0.833,0.535,1.4v10.497h8.791
		c0.568,0,1.029,0.179,1.387,0.537c0.357,0.358,0.536,0.823,0.536,1.392v3.766c0,0.569-0.185,1.034-0.552,1.393
		c-0.368,0.358-0.825,0.538-1.371,0.538H67.62v11.703c0,2.168,0.505,3.843,1.513,5.022c1.008,1.18,2.352,1.77,4.033,1.77
		c0.567,0,1.323-0.063,2.269-0.188c0.945-0.126,1.627-0.189,2.048-0.189h1.166c0.567,0,1.034,0.175,1.402,0.521
		c0.367,0.348,0.551,0.797,0.551,1.348v3.276c0,0.47-0.184,0.878-0.551,1.226c-0.368,0.348-0.835,0.561-1.402,0.643
		c-2.143,0.408-4.937,0.612-8.382,0.612C61.234,340.928,56.718,336.203,56.718,326.729"/>
	<path clip-path="url(#SVGID_2_)" fill="#2B1887" d="M85.086,308.863l1.859-10.146c0.168-0.987,0.741-1.838,1.717-2.553
		c0.977-0.714,2.001-1.071,3.072-1.071h2.584c1.681,0,2.857,0.441,3.529,1.323c0.357,0.463,0.525,1.02,0.504,1.671
		c0,0.566-0.137,1.208-0.409,1.922l-3.75,9.484c-0.42,1.029-1.077,1.891-1.969,2.583c-0.893,0.693-1.896,1.04-3.009,1.04h-1.229
		c-1.323,0-2.206-0.347-2.647-1.04c-0.273-0.42-0.41-0.997-0.41-1.732C84.928,309.903,84.981,309.41,85.086,308.863"/>
	<path clip-path="url(#SVGID_2_)" fill="#2B1887" d="M104.6,315.291c0-6.806,5.472-10.197,16.417-10.177
		c11.511,0,17.267,3.015,17.267,9.043c0,0.568-0.18,1.03-0.537,1.387c-0.357,0.357-0.82,0.535-1.388,0.535h-4.702
		c-1.514,0-2.724-0.557-3.628-1.67c-1.157-1.428-3.25-2.142-6.279-2.142c-4.186,0-6.269,1.007-6.248,3.023
		c0,0.945,0.816,1.733,2.448,2.363c1.632,0.631,3.622,1.182,5.97,1.655c2.348,0.472,4.688,1.076,7.02,1.812s4.312,1.906,5.941,3.513
		c1.628,1.607,2.442,3.64,2.442,6.098c0,6.806-5.787,10.197-17.361,10.177c-11.532,0-17.299-3.003-17.299-9.012
		c0-0.566,0.184-1.034,0.55-1.401c0.367-0.368,0.833-0.552,1.398-0.552h4.681c1.509,0,2.713,0.567,3.614,1.702
		c1.156,1.428,3.25,2.132,6.282,2.11c4.822,0,7.233-1.008,7.233-3.024c0-0.945-0.816-1.733-2.447-2.363
		c-1.633-0.631-3.628-1.192-5.986-1.686c-2.359-0.494-4.696-1.104-7.011-1.828s-4.291-1.896-5.925-3.514
		C105.417,319.724,104.6,317.707,104.6,315.291"/>
	<path clip-path="url(#SVGID_2_)" fill="#2B1887" d="M161.492,345.687c0-0.556,0.179-1.013,0.536-1.372
		c0.357-0.36,0.819-0.54,1.387-0.54h0.976c0.379,0,0.903,0.079,1.576,0.236c0.672,0.158,1.218,0.236,1.638,0.236
		c1.155,0,2.143-0.582,2.962-1.747s1.229-3.038,1.229-5.62v-28.122c0-0.563,0.183-1.023,0.551-1.379
		c0.367-0.355,0.835-0.533,1.403-0.533h7.026c0.567,0,1.029,0.186,1.387,0.552c0.357,0.368,0.535,0.824,0.535,1.371v28.265
		c0,9.893-4.065,14.84-12.194,14.84c-2.878,0-5.241-0.315-7.089-0.945c-1.282-0.288-1.923-0.926-1.923-1.911V345.687z
		 M171.67,299.265v-1.096c0-1.138,0.325-2.041,0.977-2.707c0.65-0.666,1.533-0.999,2.647-0.999h3.938
		c1.113,0,1.996,0.328,2.647,0.984c0.651,0.654,0.977,1.562,0.977,2.722v1.096c0,1.139-0.326,2.041-0.977,2.707
		s-1.534,0.999-2.647,0.999h-3.938c-1.114,0-1.997-0.333-2.647-0.999C171.996,301.306,171.67,300.404,171.67,299.265"/>
	<path clip-path="url(#SVGID_2_)" fill="#2B1887" d="M192.318,325.752v-18.055c0-0.567,0.184-1.035,0.552-1.402
		c0.367-0.367,0.824-0.552,1.37-0.552h7.058c0.567,0,1.029,0.184,1.387,0.551c0.357,0.367,0.535,0.834,0.535,1.4v18.035
		c0,5.035,1.996,7.553,5.987,7.553c2.626,0,5.451-1.51,8.476-4.532v-21.056c0-0.566,0.184-1.033,0.552-1.4
		c0.367-0.367,0.824-0.551,1.37-0.551h7.026c0.568,0,1.035,0.185,1.403,0.552c0.367,0.367,0.551,0.835,0.551,1.402v30.659
		c0,0.566-0.184,1.028-0.551,1.385c-0.368,0.357-0.835,0.536-1.403,0.536h-7.026c-0.567,0-1.029-0.185-1.386-0.554
		c-0.357-0.368-0.536-0.827-0.536-1.377v-2.025c-3.613,3.058-7.289,4.586-11.028,4.586c-4.433,0-7.93-1.244-10.493-3.733
		C193.599,334.686,192.318,330.877,192.318,325.752"/>
	<path clip-path="url(#SVGID_2_)" fill="#2B1887" d="M236.093,315.291c0-6.806,5.472-10.197,16.417-10.177
		c11.511,0,17.267,3.015,17.267,9.043c0,0.568-0.18,1.03-0.537,1.387c-0.357,0.357-0.82,0.535-1.388,0.535h-4.702
		c-1.514,0-2.724-0.557-3.628-1.67c-1.157-1.428-3.25-2.142-6.279-2.142c-4.186,0-6.269,1.007-6.248,3.023
		c0,0.945,0.816,1.733,2.448,2.363c1.632,0.631,3.622,1.182,5.97,1.655c2.348,0.472,4.688,1.076,7.02,1.812s4.312,1.906,5.941,3.513
		c1.628,1.607,2.442,3.64,2.442,6.098c0,6.806-5.787,10.197-17.361,10.177c-11.532,0-17.299-3.003-17.299-9.012
		c0-0.566,0.184-1.034,0.55-1.401c0.367-0.368,0.833-0.552,1.398-0.552h4.681c1.509,0,2.713,0.567,3.614,1.702
		c1.156,1.428,3.25,2.132,6.282,2.11c4.822,0,7.233-1.008,7.233-3.024c0-0.945-0.816-1.733-2.447-2.363
		c-1.633-0.631-3.628-1.192-5.986-1.686c-2.359-0.494-4.696-1.104-7.011-1.828s-4.291-1.896-5.925-3.514
		C236.91,319.724,236.093,317.707,236.093,315.291"/>
	<path clip-path="url(#SVGID_2_)" fill="#2B1887" d="M278.356,326.729v-29.682c0-0.567,0.184-1.034,0.552-1.402
		c0.367-0.367,0.824-0.552,1.37-0.552h7.058c0.567,0,1.029,0.184,1.387,0.55c0.357,0.367,0.535,0.833,0.535,1.4v10.497h8.791
		c0.568,0,1.029,0.179,1.387,0.537c0.357,0.358,0.536,0.823,0.536,1.392v3.766c0,0.569-0.185,1.034-0.552,1.393
		c-0.368,0.358-0.825,0.538-1.371,0.538h-8.791v11.703c0,2.168,0.505,3.843,1.513,5.022c1.008,1.18,2.352,1.77,4.033,1.77
		c0.567,0,1.324-0.063,2.269-0.188c0.945-0.126,1.627-0.189,2.048-0.189h1.166c0.567,0,1.034,0.175,1.402,0.521
		c0.367,0.348,0.551,0.797,0.551,1.348v3.276c0,0.47-0.184,0.878-0.551,1.226c-0.368,0.348-0.835,0.561-1.402,0.643
		c-2.143,0.408-4.937,0.612-8.382,0.612C282.873,340.928,278.356,336.203,278.356,326.729"/>
	<path clip-path="url(#SVGID_2_)" fill="#2B1887" d="M335.644,338.009c-2.784-1.933-4.175-4.663-4.175-8.192s1.391-6.239,4.175-8.13
		c2.783-1.891,6.37-2.836,10.76-2.836h10.43c0-2.457-0.516-4.169-1.547-5.136c-1.033-0.966-2.664-1.449-4.895-1.449
		c-2.927,0-4.979,0.715-6.158,2.143c-0.902,1.113-2.107,1.67-3.616,1.67h-4.686c-0.566,0-1.033-0.184-1.399-0.552
		c-0.368-0.367-0.551-0.823-0.551-1.37c0-6.027,5.723-9.043,17.168-9.043c5.003,0,9.018,1.118,12.045,3.355
		c3.027,2.237,4.541,5.699,4.541,10.382v19.505c0,0.567-0.179,1.029-0.536,1.386c-0.357,0.357-0.819,0.536-1.386,0.536h-6.081
		c-0.568,0-1.03-0.184-1.387-0.552c-0.357-0.367-0.536-0.824-0.536-1.37v-0.977c-3.319,2.375-7.121,3.549-11.406,3.528
		C342.014,340.908,338.427,339.942,335.644,338.009 M342.371,329.817c0,1.155,0.442,2.102,1.326,2.836
		c0.884,0.735,2.137,1.103,3.758,1.103c3.242,0,6.368-0.945,9.379-2.835v-4.916h-9.695c-1.474,0-2.637,0.357-3.489,1.071
		C342.796,327.79,342.371,328.704,342.371,329.817"/>
	<path clip-path="url(#SVGID_2_)" fill="#2B1887" d="M401.533,348.975v-41.277c0-0.567,0.183-1.035,0.551-1.402
		c0.368-0.366,0.824-0.552,1.371-0.552h6.081c0.568,0,1.029,0.186,1.387,0.552c0.357,0.367,0.535,0.835,0.535,1.402v0.944
		c3.28-2.373,6.914-3.548,10.899-3.528c4.672,0,8.466,1.548,11.383,4.644c2.916,3.096,4.375,7.498,4.375,13.206
		c0,5.804-1.494,10.244-4.484,13.324c-2.989,3.08-7.019,4.62-12.09,4.62c-2.668,0-5.703-0.538-9.106-1.613v9.68
		c0,0.566-0.184,1.034-0.551,1.402c-0.368,0.367-0.825,0.553-1.371,0.553h-7.058c-0.567,0-1.03-0.186-1.387-0.553
		C401.71,350.008,401.533,349.542,401.533,348.975 M412.435,331.993c2.71,0.86,4.989,1.29,6.837,1.29
		c2.878,0,4.921-0.817,6.129-2.454c1.208-1.636,1.812-4.257,1.812-7.865c0-3.565-0.573-6.159-1.717-7.785
		c-1.145-1.626-2.999-2.439-5.562-2.439c-1.975,0-4.474,0.944-7.499,2.831V331.993z"/>
	<path clip-path="url(#SVGID_2_)" fill="#2B1887" d="M448.189,338.009c-2.783-1.933-4.173-4.663-4.173-8.192s1.39-6.239,4.173-8.13
		c2.784-1.891,6.372-2.836,10.762-2.836h10.431c0-2.457-0.517-4.169-1.55-5.136c-1.03-0.966-2.662-1.449-4.894-1.449
		c-2.926,0-4.979,0.715-6.157,2.143c-0.902,1.113-2.106,1.67-3.617,1.67h-4.685c-0.567,0-1.034-0.184-1.399-0.552
		c-0.369-0.367-0.551-0.823-0.551-1.37c0-6.027,5.723-9.043,17.168-9.043c5.002,0,9.019,1.118,12.045,3.355
		s4.541,5.699,4.541,10.382v19.505c0,0.567-0.179,1.029-0.537,1.386c-0.356,0.357-0.817,0.536-1.385,0.536h-6.082
		c-0.566,0-1.029-0.184-1.386-0.552c-0.358-0.367-0.536-0.824-0.536-1.37v-0.977c-3.32,2.375-7.121,3.549-11.406,3.528
		C454.562,340.908,450.974,339.942,448.189,338.009 M454.918,329.817c0,1.155,0.441,2.102,1.326,2.836
		c0.885,0.735,2.138,1.103,3.758,1.103c3.242,0,6.367-0.945,9.38-2.835v-4.916h-9.695c-1.476,0-2.637,0.357-3.491,1.071
		C455.345,327.79,454.918,328.704,454.918,329.817"/>
	<path clip-path="url(#SVGID_2_)" fill="#2B1887" d="M489.776,338.356v-30.658c0-0.567,0.185-1.035,0.552-1.402
		c0.366-0.367,0.823-0.552,1.371-0.552h7.057c0.568,0,1.03,0.182,1.387,0.543c0.357,0.362,0.536,0.822,0.536,1.381v1.953
		c2.144-1.533,4.206-2.668,6.192-3.403c1.983-0.736,4.584-1.104,7.798-1.104c0.566,0,1.035,0.182,1.401,0.543
		c0.367,0.362,0.553,0.813,0.553,1.351v4.72c0,0.56-0.186,1.015-0.553,1.366c-0.366,0.352-0.835,0.527-1.401,0.527h-1.008
		c-0.484,0-1.272-0.031-2.364-0.094c-1.092-0.063-1.921-0.095-2.489-0.095c-2.836,0-5.546,1.562-8.129,4.685v20.229
		c0,0.571-0.184,1.035-0.551,1.394c-0.369,0.358-0.826,0.538-1.372,0.538h-7.057c-0.568,0-1.029-0.179-1.388-0.536
		C489.955,339.385,489.776,338.923,489.776,338.356"/>
	<path clip-path="url(#SVGID_2_)" fill="#2B1887" d="M522.871,326.729v-29.682c0-0.567,0.184-1.034,0.551-1.402
		c0.367-0.367,0.824-0.552,1.371-0.552h7.057c0.568,0,1.03,0.184,1.387,0.55c0.357,0.367,0.536,0.833,0.536,1.4v10.497h8.791
		c0.567,0,1.029,0.179,1.386,0.537c0.357,0.358,0.536,0.823,0.536,1.392v3.766c0,0.569-0.184,1.034-0.552,1.393
		c-0.367,0.358-0.824,0.538-1.37,0.538h-8.791v11.703c0,2.168,0.504,3.843,1.512,5.022c1.01,1.18,2.354,1.77,4.033,1.77
		c0.568,0,1.324-0.063,2.27-0.188c0.944-0.126,1.628-0.189,2.049-0.189h1.165c0.566,0,1.035,0.175,1.401,0.521
		c0.367,0.348,0.553,0.797,0.553,1.348v3.276c0,0.47-0.186,0.878-0.553,1.226c-0.366,0.348-0.835,0.561-1.401,0.643
		c-2.144,0.408-4.938,0.612-8.381,0.612C527.387,340.928,522.871,336.203,522.871,326.729"/>
</g>
</svg>
